<?xml version="1.0" standalone="no"?>
<!DOCTYPE svg PUBLIC "-//W3C//DTD SVG 20010904//EN"
 "http://www.w3.org/TR/2001/REC-SVG-20010904/DTD/svg10.dtd">
<svg version="1.0" xmlns="http://www.w3.org/2000/svg"
 width="440.000000pt" height="88.000000pt" viewBox="0 0 440.000000 88.000000"
 preserveAspectRatio="xMidYMid meet">
<metadata>
Created by potrace 1.16, written by Peter Selinger 2001-2019
</metadata>
<g transform="translate(0.000000,88.000000) scale(0.100000,-0.100000)"
fill="#000000" stroke="none">
<path d="M1082 742 c-16 -10 -56 -121 -126 -348 -64 -208 -67 -231 -30 -240
16 -4 30 -2 38 7 8 8 35 86 61 174 26 88 65 209 86 269 21 60 39 111 39 112 0
1 -7 10 -16 18 -17 18 -32 20 -52 8z"/>
<path d="M1990 420 l0 -210 30 0 30 0 0 180 0 180 44 0 c153 0 202 -222 63
-289 -24 -12 -53 -21 -65 -21 -17 0 -22 -6 -22 -25 0 -22 4 -25 33 -25 38 0
103 29 136 60 58 56 77 160 42 235 -39 85 -110 125 -221 125 l-70 0 0 -210z"/>
<path d="M2963 615 c-39 -17 -67 -67 -58 -104 12 -47 34 -70 103 -105 78 -39
105 -65 100 -97 -5 -34 -43 -49 -130 -49 -77 0 -78 0 -78 -26 l0 -26 105 4
c99 3 106 5 132 31 22 21 28 37 28 70 0 61 -22 87 -114 136 -58 32 -83 51 -87
68 -11 42 10 53 102 53 l84 0 0 30 0 30 -77 0 c-44 -1 -92 -7 -110 -15z"/>
<path d="M3210 420 l0 -210 24 0 c24 0 24 2 28 99 4 114 18 141 74 141 52 0
64 -27 64 -142 l0 -98 30 0 30 0 0 78 c-1 163 -29 212 -120 212 -27 0 -52 -4
-55 -10 -16 -26 -25 -3 -25 65 0 73 -1 75 -25 75 l-25 0 0 -210z"/>
<path d="M3850 421 l0 -211 30 0 30 0 -2 208 -3 207 -27 3 -28 3 0 -210z"/>
<path d="M3987 623 c-4 -3 -7 -98 -7 -210 l0 -203 30 0 30 0 0 210 0 210 -23
0 c-13 0 -27 -3 -30 -7z"/>
<path d="M440 533 c-145 -98 -146 -105 -40 -181 41 -29 94 -65 118 -79 42 -25
43 -25 63 -7 35 31 20 55 -68 109 -46 27 -83 52 -83 55 1 3 37 28 82 56 98 60
109 75 84 103 -11 12 -24 21 -30 21 -7 0 -63 -35 -126 -77z"/>
<path d="M1455 594 c-26 -26 -14 -46 55 -91 115 -74 114 -61 16 -126 -69 -46
-86 -62 -86 -82 0 -14 8 -29 19 -35 16 -8 40 4 141 70 158 105 158 106 7 207
-59 40 -114 73 -121 73 -8 0 -22 -7 -31 -16z"/>
<path d="M2412 480 c-96 -59 -96 -206 0 -256 102 -53 220 17 220 131 0 113
-124 184 -220 125z m131 -50 c31 -25 43 -74 27 -114 -15 -40 -38 -55 -86 -56
-46 0 -77 25 -88 72 -8 33 15 92 41 107 29 17 78 13 106 -9z"/>
<path d="M2763 480 c-139 -63 -90 -270 65 -270 38 0 42 2 42 25 0 20 -5 25
-24 25 -67 0 -109 39 -109 102 0 40 37 74 92 83 35 6 41 10 41 31 0 20 -5 24
-32 24 -18 0 -52 -9 -75 -20z"/>
<path d="M3569 477 c-67 -44 -88 -135 -46 -197 36 -53 71 -74 125 -74 59 0
103 25 131 74 28 50 27 60 -9 60 -20 0 -30 -5 -30 -15 0 -32 -47 -65 -90 -65
-58 0 -90 34 -90 93 0 59 36 97 90 97 21 0 42 -6 48 -13 9 -10 -4 -22 -58 -53
-64 -37 -69 -42 -57 -59 13 -17 19 -15 111 34 l96 53 -21 29 c-44 62 -137 79
-200 36z"/>
</g>
</svg>
